# xmcd
#
# Track frame offsets:
#	150
#	18557
#	38207
#	62005
#	85512
#	104845
#	123059
#	139409
#	159284
#	178596
#	197710
#	222610
#
# Disc length: 3222 seconds
# Revision: 0
# Processed by: cddbd v1.5.2PL0 Copyright (c) Steve Scherf et al.
# Submitted via: dBpowerAMP V12.0
#
DISCID=a80c940c
DTITLE=Rob Berry - Smile.....It's only money!
DYEAR=2009
DGENRE=
TTITLE0=Got Love
TTITLE1=They're Taking Me Away
TTITLE2=Lady Luck
TTITLE3=Young to Old
TTITLE4=So Tireds
TTITLE5=At Last
TTITLE6=I woke Up
TTITLE7=Think
TTITLE8=Simple Life
TTITLE9=The Rock
TTITLE10=Long Time
TTITLE11=The Box
EXTD=
EXTT0=
EXTT1=
EXTT2=
EXTT3=
EXTT4=
EXTT5=
EXTT6=
EXTT7=
EXTT8=
EXTT9=
EXTT10=
EXTT11=
PLAYORDER=
